<svg width="362" height="63" viewBox="0 0 362 63" fill="none" xmlns="http://www.w3.org/2000/svg">
<path d="M29.6362 0C30.2367 2.84111e-06 30.7364 0.458637 30.7834 1.0532L32.7023 25.3113L41.8683 12.6768C42.2214 12.1901 42.8883 12.048 43.4115 12.3479C43.9346 12.6479 44.1441 13.2925 43.8962 13.8396L36.0825 31.0843C35.967 31.3391 35.8735 31.5988 35.8013 31.8612C35.5916 32.6233 36.0341 33.4082 36.798 33.6289C37.1304 33.7249 37.4764 33.7897 37.8326 33.8198L58.1876 35.9422C58.7017 35.9929 59.0967 36.4908 59.0967 37.0883C59.0967 37.6857 58.7017 38.1837 58.1876 38.2344L41.6079 40.0374L66.7196 56.6815C67.2173 57.0114 67.3717 57.6683 67.0725 58.183C66.7733 58.6976 66.1231 58.8933 65.5866 58.6302L34.2014 43.2372C34.14 43.207 34.0783 43.1782 34.0162 43.1506C33.5218 42.9311 32.9495 43.1577 32.7435 43.6551C32.5852 44.0374 32.4704 44.443 32.4054 44.866L30.8604 58.9274C30.7681 59.5281 30.248 59.9719 29.6362 59.9719C29.0243 59.9719 28.5042 59.5281 28.412 58.9274L26.9685 45.5275L22.6525 50.5537C22.2525 51.0195 21.5748 51.1354 21.041 50.8293C20.5071 50.5232 20.2692 49.8822 20.4754 49.3052L23.1484 41.8245C23.3763 41.1869 22.9604 40.5166 22.2845 40.4323C22.2129 40.4233 22.1409 40.4158 22.0685 40.4097L0.90906 38.2339C0.395059 38.1835 1.99916e-06 37.6856 0 37.0883C0 36.4909 0.395058 35.9931 0.90906 35.9427L18.8089 34.0401L3.41658 23.0261C2.9265 22.6754 2.78342 22.0131 3.08546 21.4935C3.3875 20.974 4.03654 20.7659 4.58743 21.0121L24.2237 29.7877C24.5001 29.9112 24.7825 30.0094 25.068 30.0831C25.6197 30.2255 26.1646 29.8641 26.2439 29.3034C26.2589 29.197 26.2708 29.0896 26.2793 28.9812L28.4889 1.0532C28.536 0.458635 29.0356 0 29.6362 0Z" fill="white"/>
<path d="M348.189 62.727C340.787 62.727 335.654 58.7288 335.384 53.434H341.003C341.436 56.0814 344.191 57.9724 348.189 57.9724C352.89 57.9724 356.023 55.4871 356.023 50.3543V47.5989C354.186 50.4624 350.837 52.0292 347.055 52.0292C339.274 52.0292 334.25 46.2482 334.25 38.1978C334.25 30.0935 339.328 24.3665 347.055 24.3665C350.945 24.3665 354.186 25.9333 356.023 28.7968V25.1769H361.588V50.1923C361.588 58.5127 356.348 62.727 348.189 62.727ZM348.027 47.2207C352.836 47.2207 356.185 43.7628 356.185 38.1978C356.185 32.5788 352.782 29.175 348.027 29.175C343.273 29.175 339.923 32.6329 339.923 38.1978C339.923 43.8169 343.273 47.2207 348.027 47.2207Z" fill="white"/>
<path d="M317.776 53.8122C309.131 53.8122 303.458 47.761 303.458 39.0623C303.458 30.3637 309.131 24.3665 317.776 24.3665C326.474 24.3665 332.093 30.4177 332.093 39.0623C332.093 47.815 326.474 53.8122 317.776 53.8122ZM317.776 48.7335C323.07 48.7335 326.474 45.1135 326.474 39.0623C326.474 33.0111 323.016 29.4452 317.776 29.4452C312.535 29.4452 309.077 33.0651 309.077 39.0623C309.077 45.1676 312.535 48.7335 317.776 48.7335Z" fill="white"/>
<path d="M285.324 53.8122C277.436 53.8122 272.249 47.7069 272.249 39.0623C272.249 30.4177 277.22 24.3664 285.432 24.3664C288.62 24.3664 292.402 25.8252 294.239 28.7968V14.9114H299.804V53.0017H294.401V49.1657C292.564 52.1913 288.836 53.8122 285.324 53.8122ZM286.243 48.7335C291.051 48.7335 294.563 45.1135 294.563 39.0623C294.563 33.0111 290.997 29.4451 286.243 29.4451C281.002 29.4451 277.922 33.0651 277.922 39.0623C277.922 45.1675 281.002 48.7335 286.243 48.7335Z" fill="white"/>
<path d="M257.96 53.0016V25.1768H263.309V29.4991C264.443 26.3654 267.307 24.6365 270.548 24.6365H271.899V30.2014H270.765C265.848 30.2014 263.471 33.2811 263.471 38.0356V53.0016H257.96Z" fill="white"/>
<path d="M240.972 53.8122C232.381 53.8122 226.87 47.9771 226.87 38.9543C226.87 30.3096 232.489 24.3665 240.593 24.3665C248.806 24.3665 254.371 29.7693 254.371 37.8196V37.9817C254.371 39.0083 254.263 40.0889 254.155 40.8993H232.543C232.867 46.032 236.109 49.1117 241.08 49.1117C244.754 49.1117 247.239 47.4368 248.211 44.5192H253.938C252.588 50.2463 247.779 53.8122 240.972 53.8122ZM248.644 36.523C248.428 31.8224 245.348 28.9589 240.647 28.9589C236.109 28.9589 233.029 31.8224 232.543 36.523H248.644Z" fill="white"/>
<path d="M208.736 53.8122C200.848 53.8122 195.661 47.7069 195.661 39.0623C195.661 30.4177 200.632 24.3664 208.844 24.3664C212.032 24.3664 215.814 25.8252 217.651 28.7968V14.9114H223.216V53.0017H217.813V49.1657C215.976 52.1913 212.248 53.8122 208.736 53.8122ZM209.654 48.7335C214.463 48.7335 217.975 45.1135 217.975 39.0623C217.975 33.0111 214.409 29.4451 209.654 29.4451C204.414 29.4451 201.334 33.0651 201.334 39.0623C201.334 45.1675 204.414 48.7335 209.654 48.7335Z" fill="white"/>
<path d="M167.917 53.0018V25.1769H173.266V28.6347C174.833 25.9333 178.075 24.3665 181.803 24.3665C187.8 24.3665 192.23 27.6622 192.23 35.8206V53.0018H186.665V36.7391C186.665 31.9845 184.288 29.5532 180.398 29.5532C175.914 29.5532 173.428 32.5788 173.428 37.0092V53.0018H167.917Z" fill="white"/>
<path d="M149.932 53.8122C141.287 53.8122 135.614 47.761 135.614 39.0623C135.614 30.3637 141.287 24.3665 149.932 24.3665C158.63 24.3665 164.249 30.4177 164.249 39.0623C164.249 47.815 158.63 53.8122 149.932 53.8122ZM149.932 48.7335C155.226 48.7335 158.63 45.1135 158.63 39.0623C158.63 33.0111 155.172 29.4452 149.932 29.4452C144.691 29.4452 141.233 33.0651 141.233 39.0623C141.233 45.1676 144.691 48.7335 149.932 48.7335Z" fill="white"/>
<path d="M95.7841 53.0017L84.33 14.9114H90.5973L96.9187 37.6035L98.8637 44.7893L101.025 37.6035L107.724 14.9114H113.83L120.529 37.6035L122.69 44.7893L124.635 37.6035L130.957 14.9114H137.224L125.77 53.0017H119.719L113.127 31.012L110.804 23.0697L108.427 30.958L101.835 53.0017H95.7841Z" fill="white"/>
</svg>
